<?xml version="1.0" encoding="UTF-8"?>
<svg version="1.1" xmlns="http://www.w3.org/2000/svg" width="689" height="139">
<path d="M0 0 C1.02175827 -0.00671722 2.04351654 -0.01343445 3.09623718 -0.02035522 C6.47200391 -0.0393435 9.84757187 -0.04325994 13.22338867 -0.04541016 C15.57362449 -0.05183776 17.9238595 -0.05856609 20.27409363 -0.06558228 C25.20097712 -0.07755731 30.12779048 -0.08126288 35.0546875 -0.08007812 C41.35958288 -0.07987499 47.66402726 -0.10717136 53.9688158 -0.14162254 C58.82364455 -0.16389026 63.67836478 -0.16791569 68.53323936 -0.16685867 C70.85720053 -0.16921503 73.18116467 -0.17804049 75.50507545 -0.19352341 C78.76021267 -0.21317892 82.01437746 -0.20734622 85.26953125 -0.1953125 C86.2240921 -0.20655151 87.17865295 -0.21779053 88.16213989 -0.22937012 C95.32822616 -0.16225164 100.63568726 1.49233119 106.07104492 6.25537109 C106.60987305 6.90634766 107.14870117 7.55732422 107.70385742 8.22802734 C108.2581543 8.87642578 108.81245117 9.52482422 109.38354492 10.19287109 C113.19965946 15.73139409 113.13069591 20.84135446 113.13525391 27.35400391 C113.14357742 28.36440231 113.15190094 29.37480072 113.16047668 30.41581726 C113.1845607 33.75430158 113.19334744 37.09259038 113.19995117 40.43115234 C113.20891949 42.75657204 113.21804138 45.08199115 113.22731018 47.40740967 C113.24379895 52.28301393 113.25149997 57.15854954 113.25439453 62.03417969 C113.25977468 68.26956572 113.29744093 74.50430282 113.34313869 80.73950577 C113.37294149 85.54376558 113.38011882 90.34786984 113.38112068 95.15221405 C113.3853174 97.45024331 113.39772949 99.74827327 113.41863823 102.04621124 C113.4456149 105.26777777 113.44070728 108.48784934 113.42822266 111.70947266 C113.45047409 113.12189491 113.45047409 113.12189491 113.47317505 114.56285095 C113.39367466 121.79853391 111.32378202 127.42679865 106.42153072 132.84636307 C99.73785686 138.853738 93.22617096 139.73744053 84.64599609 139.71044922 C83.1470002 139.72315353 83.1470002 139.72315353 81.61772156 139.7361145 C78.32729217 139.75943633 75.03733183 139.76050767 71.74682617 139.75927734 C69.44907954 139.7663825 67.15133467 139.77408201 64.85359192 139.78234863 C60.04117907 139.79578293 55.22893024 139.79736717 50.41650391 139.79150391 C44.26643291 139.78561313 38.11715277 139.81617955 31.96723461 139.85662079 C27.22211 139.8825429 22.47717456 139.88537099 17.73198891 139.88172913 C15.46549812 139.88341656 13.19899825 139.89302255 10.93257713 139.91087341 C7.75448968 139.93314852 4.577987 139.92331641 1.39990234 139.90576172 C0.47437561 139.91902496 -0.45115112 139.93228821 -1.40472412 139.94595337 C-8.92450894 139.85003038 -15.5304064 137.67579846 -21.12203693 132.47652435 C-26.89170239 126.19700511 -27.46953896 120.47013157 -27.46166992 112.21118164 C-27.46838715 111.19917694 -27.47510437 110.18717224 -27.48202515 109.14450073 C-27.50101228 105.80119914 -27.50492981 102.45809824 -27.50708008 99.11474609 C-27.51350777 96.78693052 -27.52023611 94.45911576 -27.5272522 92.13130188 C-27.53922695 87.25149666 -27.54293284 82.37176224 -27.54174805 77.49194336 C-27.54154491 71.24758033 -27.56884106 65.00367269 -27.60329247 58.75941753 C-27.62556124 53.95091173 -27.62958558 49.14251548 -27.62852859 44.33396339 C-27.63088481 42.03233077 -27.63970942 39.73069514 -27.65519333 37.42911339 C-27.67485098 34.20510618 -27.66901534 30.98208061 -27.65698242 27.75805664 C-27.66822144 26.81284653 -27.67946045 25.86763641 -27.69104004 24.89378357 C-27.62356842 17.75766722 -25.94837844 12.4597786 -21.20629883 7.04833984 C-20.55532227 6.50951172 -19.9043457 5.97068359 -19.23364258 5.41552734 C-18.58524414 4.86123047 -17.9368457 4.30693359 -17.26879883 3.73583984 C-11.69680266 -0.10333815 -6.55160847 -0.00618154 0 0 Z " fill="#FCFDFE" transform="translate(27.171142578125,-0.29052734375)"/>
<path d="M0 0 C2.11783407 0.82200338 4.23635962 1.6422268 6.35546875 2.4609375 C7.48645996 2.90018555 8.61745117 3.33943359 9.78271484 3.79199219 C13.71161603 5.29216581 17.65754471 6.73659645 21.61328125 8.1640625 C22.29630814 8.41111435 22.97933502 8.6581662 23.68305969 8.91270447 C26.39887055 9.89445889 29.11489929 10.87548303 31.83401489 11.84805298 C33.73229321 12.52779926 35.62792789 13.21491457 37.5234375 13.90234375 C38.6170459 14.29542725 39.7106543 14.68851074 40.83740234 15.09350586 C43.4375 16.1875 43.4375 16.1875 45.4375 18.1875 C45.30078125 20.6953125 45.30078125 20.6953125 44.4375 23.1875 C42.85546875 24.3046875 42.85546875 24.3046875 40.625 25.0625 C39.73425781 25.37832031 38.84351562 25.69414063 37.92578125 26.01953125 C36.77464844 26.40496094 35.62351562 26.79039063 34.4375 27.1875 C32.8259942 27.75154411 31.21538878 28.31816426 29.60546875 28.88671875 C26.15487313 30.1038228 22.70038485 31.30858821 19.2421875 32.50390625 C14.24848301 34.24039511 9.301278 36.08555335 4.3671875 37.98413086 C2.24962484 38.79460742 0.12562012 39.58592929 -2 40.375 C-2.69931641 40.64763672 -3.39863281 40.92027344 -4.11914062 41.20117188 C-13.06036685 44.47715834 -19.88131841 43.60677137 -28.5 39.875 C-30.0678298 39.22889848 -31.63683637 38.58564483 -33.20703125 37.9453125 C-33.95291504 37.63883789 -34.69879883 37.33236328 -35.46728516 37.01660156 C-39.41290931 35.45527091 -43.46293189 34.26904435 -47.5625 33.1875 C-46.5625 30.1875 -46.5625 30.1875 -44.72753906 29.10009766 C-43.93573242 28.77058105 -43.14392578 28.44106445 -42.328125 28.1015625 C-41.44922607 27.73023193 -40.57032715 27.35890137 -39.66479492 26.97631836 C-38.7235376 26.5922583 -37.78228027 26.20819824 -36.8125 25.8125 C-35.86415283 25.41619385 -34.91580566 25.0198877 -33.9387207 24.61157227 C-26.86426271 21.67174863 -19.74964716 18.84101073 -12.5625 16.1875 C-12.5625 14.5375 -12.5625 12.8875 -12.5625 11.1875 C-25.85969851 13.58178942 -47.21962405 20.26037371 -55.515625 31.484375 C-59.63333243 38.18333186 -59.45070927 45.91588086 -57.88671875 53.4375 C-57.33906997 55.63847708 -56.7896027 57.83900251 -56.23828125 60.0390625 C-54.8010139 66.73523294 -54.87985185 72.81621065 -57.5625 79.1875 C-69.05082346 78.33981788 -69.05082346 78.33981788 -72.5625 76.1875 C-73.359375 74.484375 -73.359375 74.484375 -73.5625 72.1875 C-72.41796875 69.34765625 -72.41796875 69.34765625 -70.75 66.25 C-67.16561949 59.51545135 -65.35034657 54.7350461 -65.1875 47.0625 C-64.92050336 39.83957929 -63.63439028 33.80278001 -60.5625 27.1875 C-61.33335938 26.99414062 -62.10421875 26.80078125 -62.8984375 26.6015625 C-63.90132812 26.34117188 -64.90421875 26.08078125 -65.9375 25.8125 C-67.43410156 25.42964844 -67.43410156 25.42964844 -68.9609375 25.0390625 C-71.5625 24.1875 -71.5625 24.1875 -73.5625 22.1875 C-73.1875 19.0625 -73.1875 19.0625 -72.5625 16.1875 C-71.79550781 15.919375 -71.02851562 15.65125 -70.23828125 15.375 C-63.81860239 13.10835381 -57.43418304 10.77122962 -51.0793457 8.328125 C-42.97439273 5.21227578 -34.85513534 2.13552731 -26.6875 -0.8125 C-25.87394043 -1.11526855 -25.06038086 -1.41803711 -24.22216797 -1.72998047 C-15.01799432 -5.00552129 -8.8664891 -3.53611934 0 0 Z " fill="#2865EB" transform="translate(84.5625,30.8125)"/>
<path d="M0 0 C3.51505436 0.61760493 6.66592578 1.54151923 9.984375 2.84765625 C10.92023437 3.20537109 11.85609375 3.56308594 12.8203125 3.93164062 C14.76117023 4.68081171 16.69875209 5.43852979 18.6328125 6.20507812 C28.42224137 9.91299194 35.30422966 9.74897399 45.0625 6.1875 C46.18881836 5.79594727 46.18881836 5.79594727 47.33789062 5.39648438 C50.32118027 4.35220407 53.28789556 3.27690356 56.23388672 2.13134766 C61.71825397 0 61.71825397 0 65 0 C66.1216863 2.24337261 66.2872447 3.86856315 66.53515625 6.359375 C66.62216797 7.22820312 66.70917969 8.09703125 66.79882812 8.9921875 C66.88583984 9.90226562 66.97285156 10.81234375 67.0625 11.75 C67.19881836 13.09191406 67.19881836 13.09191406 67.33789062 14.4609375 C68.57952276 27.11998395 68.57952276 27.11998395 66.3125 30.5625 C54.69330611 40.93917894 36.33570725 39.69064632 22 39 C13.58263058 38.16556437 4.99752482 36.04403546 -1.69165039 30.63110352 C-3.34955625 28.56421249 -3.34264986 27.52412253 -3.24609375 24.90234375 C-3.2188623 24.10683105 -3.19163086 23.31131836 -3.16357422 22.49169922 C-2.9015422 18.50020855 -2.52889305 14.53511034 -2.0625 10.5625 C-1.97548828 9.76134766 -1.88847656 8.96019531 -1.79882812 8.13476562 C-1.13087854 2.26175709 -1.13087854 2.26175709 0 0 Z " fill="#2664EB" transform="translate(38,71)"/>
<path d="M0 0 C2.64 0 5.28 0 8 0 C8.33 31.68 8.66 63.36 9 96 C6.69 96 4.38 96 2 96 C1.67 94.35 1.34 92.7 1 91 C0.34 91.598125 -0.32 92.19625 -1 92.8125 C-9.45896783 98.98049738 -18.88472121 99.08583567 -29 98 C-35.73831925 96.4103965 -40.15045701 91.54959496 -44 86 C-50.10269733 74.90418668 -50.77845251 62.16523362 -47.375 50.0625 C-44.27447213 41.21623867 -39.17506264 34.71869425 -31 30 C-25.97049787 27.86118414 -21.43548001 27.66520548 -16.0625 27.6875 C-15.28970703 27.67138672 -14.51691406 27.65527344 -13.72070312 27.63867188 C-12.95822266 27.63802734 -12.19574219 27.63738281 -11.41015625 27.63671875 C-10.73090088 27.63373779 -10.05164551 27.63075684 -9.35180664 27.62768555 C-7 28 -7 28 0 31 C0 20.77 0 10.54 0 0 Z M-34.87109375 41.08984375 C-41.4528911 50.32330047 -42.97921288 61.58405268 -41.4375 72.6875 C-39.97186062 79.49436209 -36.60034236 85.47304733 -30.8125 89.5 C-24.16452461 93.04558687 -15.71324238 93.34247152 -8.4765625 91.28125 C-6.4371821 90.31234897 -4.78087649 89.39043825 -3 88 C-2.11183594 87.401875 -1.22367187 86.80375 -0.30859375 86.1875 C3.39372756 81.0756655 2.56717569 75.82425682 2.375 69.6875 C2.35066895 68.43324219 2.32633789 67.17898437 2.30126953 65.88671875 C2.24685746 63.39342249 2.18055804 60.90035333 2.1015625 58.40771484 C2.01537207 55.51577738 1.97796855 52.63117618 1.96875 49.73828125 C1.94051524 48.32545736 1.90957675 46.91268291 1.875 45.5 C1.85179687 44.3140625 1.82859375 43.128125 1.8046875 41.90625 C1.22443558 38.72326584 1.22443558 38.72326584 -1.8671875 36.65625 C-12.14308746 31.22360463 -26.86614471 32.14903428 -34.87109375 41.08984375 Z " fill="#2563EB" transform="translate(288,17)"/>
<path d="M0 0 C2.64 0 5.28 0 8 0 C8 18.15 8 36.3 8 55 C14.43475267 51.1391484 19.84246139 47.80464113 25.3125 42.9375 C26.18358398 42.18243164 26.18358398 42.18243164 27.07226562 41.41210938 C29.74002336 39.08196618 32.18418115 36.79441554 34.5546875 34.1484375 C37.545212 31.52097987 38.90377372 31.45203456 42.8125 31.6875 C44.27623047 31.75517578 44.27623047 31.75517578 45.76953125 31.82421875 C46.50558594 31.88222656 47.24164062 31.94023438 48 32 C46.6001803 35.29861604 45.05107585 37.03681191 42.21875 39.20703125 C41.08542236 40.08270752 41.08542236 40.08270752 39.92919922 40.97607422 C39.12756348 41.58209473 38.32592773 42.18811523 37.5 42.8125 C36.68934082 43.43398926 35.87868164 44.05547852 35.04345703 44.69580078 C29.46659752 48.95009373 23.83298844 53.10157054 18 57 C21.02187663 60.70179887 23.98616994 64.09310844 27.640625 67.17578125 C32.39264521 71.28183738 36.82195271 75.67481247 41.25 80.125 C42.03890625 80.91003906 42.8278125 81.69507812 43.640625 82.50390625 C54 92.88078019 54 92.88078019 54 97 C50.45076789 97.73355737 47.54441017 97.8152805 44 97 C41.90551758 94.95068359 41.90551758 94.95068359 39.89453125 92.2109375 C35.21955618 86.16501344 30.09169934 80.81872373 24.65917969 75.45336914 C23.10015284 73.91294939 21.54962735 72.36432321 20 70.81445312 C14.81396716 65.53733796 14.81396716 65.53733796 9 61 C9 72.88 9 84.76 9 97 C6.03 97 3.06 97 0 97 C0 64.99 0 32.98 0 0 Z " fill="#2563EB" transform="translate(626,16)"/>
<path d="M0 0 C16.17 0 32.34 0 49 0 C49 1.98 49 3.96 49 6 C35.14 6 21.28 6 7 6 C7.33 6.99 7.66 7.98 8 9 C8.08358958 11.21089945 8.10731764 13.42426078 8.09765625 15.63671875 C8.09515869 16.80678467 8.09266113 17.97685059 8.09008789 19.18237305 C8.08098389 20.66906494 8.07187988 22.15575684 8.0625 23.6875 C8.041875 28.410625 8.02125 33.13375 8 38 C18.89 38 29.78 38 41 38 C41 40.31 41 42.62 41 45 C30.11 45 19.22 45 8 45 C8 56.88 8 68.76 8 81 C30.275 80.505 30.275 80.505 53 80 C53 82.64 53 85.28 53 88 C35.51 88 18.02 88 0 88 C0.165 82.92625 0.33 77.8525 0.5 72.625 C1.23097555 48.36125273 0.98019308 24.25977871 0 0 Z " fill="#2563EB" transform="translate(174,25)"/>
<path d="M0 0 C0.94166016 -0.01611328 1.88332031 -0.03222656 2.85351562 -0.04882812 C9.62104044 -0.05353761 15.59598948 0.52262405 20.99609375 5.03125 C21.67865234 5.91296875 21.67865234 5.91296875 22.375 6.8125 C22.84808594 7.4003125 23.32117188 7.988125 23.80859375 8.59375 C25.983577 11.90514319 26.08119092 14.8543474 26.14282227 18.7019043 C26.1727401 20.35327644 26.1727401 20.35327644 26.20326233 22.03800964 C26.21997482 23.22558365 26.23668732 24.41315765 26.25390625 25.63671875 C26.27468735 26.85325638 26.29546844 28.06979401 26.31687927 29.32319641 C26.38234717 33.21540596 26.44124715 37.10768385 26.5 41 C26.54318782 43.63607482 26.5868022 46.27214269 26.63085938 48.90820312 C26.73802578 55.37622951 26.83979745 61.84432411 26.9375 68.3125 C24.9575 68.3125 22.9775 68.3125 20.9375 68.3125 C20.2775 66.9925 19.6175 65.6725 18.9375 64.3125 C18.32261719 64.66183594 17.70773437 65.01117188 17.07421875 65.37109375 C16.26597656 65.82613281 15.45773437 66.28117187 14.625 66.75 C13.82449219 67.20246094 13.02398438 67.65492187 12.19921875 68.12109375 C7.6090773 70.53904391 3.32105327 70.56350784 -1.75 70.625 C-2.52794922 70.65400391 -3.30589844 70.68300781 -4.10742188 70.71289062 C-9.86053127 70.77526796 -14.29877322 69.63142109 -19.0625 66.3125 C-23.89508754 60.36469996 -24.77067481 54.78627346 -24.0625 47.3125 C-21.75870952 40.40112856 -18.86262471 36.07385411 -12.4375 32.625 C-1.86589357 27.74579703 8.53275835 28.07434994 19.9375 28.3125 C19.70773606 26.24764776 19.45279223 24.18558882 19.1875 22.125 C19.04828125 20.97644531 18.9090625 19.82789062 18.765625 18.64453125 C17.63236926 14.08478057 15.82545017 11.4576501 11.79296875 9.01171875 C7.60014955 7.98502294 3.54964611 8.06141928 -0.75 8.125 C-1.64106445 8.13144531 -2.53212891 8.13789062 -3.45019531 8.14453125 C-9.37342485 8.21383412 -15.18617636 8.52899018 -21.0625 9.3125 C-20.7325 7.0025 -20.4025 4.6925 -20.0625 2.3125 C-13.26080496 0.56149953 -7.01128929 -0.02409378 0 0 Z M-14.375 43.5 C-16.69955577 47.37425962 -17.26069474 50.81744325 -17.0625 55.3125 C-15.87485373 58.87543882 -14.90268757 60.66774068 -11.9296875 62.94921875 C-8.35238722 64.65014218 -5.1959145 64.80659889 -1.3125 64.75 C-0.60383789 64.74387695 0.10482422 64.73775391 0.83496094 64.73144531 C6.52642173 64.56213412 11.2541199 63.61122859 15.9375 60.3125 C16.6696875 59.838125 17.401875 59.36375 18.15625 58.875 C21.09810447 54.64285848 20.35281124 50.07270224 20.1875 45.0625 C20.16945313 44.03125 20.15140625 43 20.1328125 41.9375 C20.08572712 39.39488936 20.0199805 36.85416838 19.9375 34.3125 C7.05370178 33.79791043 -4.60930393 34.26217939 -14.375 43.5 Z " fill="#2563EB" transform="translate(516.0625,44.6875)"/>
<path d="M0 0 C2.64 0 5.28 0 8 0 C7.99214478 1.47255249 7.99214478 1.47255249 7.98413086 2.97485352 C7.96573262 6.69310558 7.95444376 10.41135384 7.94506836 14.12963867 C7.94010631 15.72469769 7.93333452 17.31975232 7.92456055 18.91479492 C6.96153065 39.05350479 6.96153065 39.05350479 12 58 C15.62726097 60.675994 19.86003702 60.38299553 24.1875 60.375 C25.32554077 60.37584595 25.32554077 60.37584595 26.48657227 60.37670898 C32.37976583 60.26118093 36.94535938 59.13866712 42 56 C42.66 55.67 43.32 55.34 44 55 C44.33 36.85 44.66 18.7 45 0 C47.31 0 49.62 0 52 0 C52.33 21.45 52.66 42.9 53 65 C51.02 65 49.04 65 47 65 C46.34 63.35 45.68 61.7 45 60 C44.48050781 60.33773437 43.96101563 60.67546875 43.42578125 61.0234375 C42.72839844 61.46945313 42.03101563 61.91546875 41.3125 62.375 C40.62800781 62.81585938 39.94351563 63.25671875 39.23828125 63.7109375 C33.79093627 66.84815189 29.36716351 67.36479411 23.1875 67.375 C22.41857422 67.39949219 21.64964844 67.42398438 20.85742188 67.44921875 C15.12728178 67.47823212 10.77660735 66.21955286 6 63 C-0.64550839 55.65496441 -0.29448378 45.1232103 -0.1953125 35.7421875 C-0.1924826 34.71312286 -0.18965271 33.68405823 -0.18673706 32.62380981 C-0.17564479 29.37408244 -0.15056115 26.12464246 -0.125 22.875 C-0.11495603 20.65625401 -0.10583267 18.43750366 -0.09765625 16.21875 C-0.07574149 10.81240385 -0.04237499 5.40622247 0 0 Z " fill="#2563EB" transform="translate(317,48)"/>
<path d="M0 0 C21.78 0 43.56 0 66 0 C65.67 1.98 65.34 3.96 65 6 C55.76 6 46.52 6 37 6 C37 33.06 37 60.12 37 88 C34.36 88 31.72 88 29 88 C29 60.94 29 33.88 29 6 C19.43 6 9.86 6 0 6 C0 4.02 0 2.04 0 0 Z " fill="#2563EB" transform="translate(380,25)"/>
<path d="M0 0 C0.85335937 0.00515625 1.70671875 0.0103125 2.5859375 0.015625 C8.81392045 0.09446023 8.81392045 0.09446023 11.125 1.25 C11.125 3.56 11.125 5.87 11.125 8.25 C8.99198452 8.93561212 7.57053888 9.36411352 5.37109375 8.80078125 C-1.22889359 7.18234957 -8.6907155 7.14746296 -14.8125 10.25 C-21.1690819 14.3747673 -24.91592204 19.98988757 -26.875 27.25 C-27.88938774 37.86568564 -26.64234174 45.9710971 -21.1875 55.0625 C-14.90750698 61.00303394 -8.08263626 63.39185487 0.4375 63.375 C1.73300781 63.37757812 3.02851562 63.38015625 4.36328125 63.3828125 C7.72062923 63.26427685 10.8333127 62.89302729 14.125 62.25 C14.125 64.23 14.125 66.21 14.125 68.25 C6.40441878 72.16510204 -4.77276451 71.29420751 -13.0625 69.59765625 C-21.96321794 66.35723862 -28.80405429 59.73800422 -32.875 51.25 C-36.62446778 40.89432707 -36.13956061 28.38838938 -31.875 18.25 C-27.44247231 10.43439042 -20.64586415 3.83134257 -12.13134766 0.82348633 C-8.10156533 -0.20074638 -4.13267117 -0.10267506 0 0 Z " fill="#2563EB" transform="translate(595.875,44.75)"/>
<path d="M0 0 C0.66 3.3 1.32 6.6 2 10 C2.886875 8.906875 3.77375 7.81375 4.6875 6.6875 C8.02242134 2.57701556 10.99952701 0.21532869 16.375 -0.36328125 C17.57125 -0.34652344 18.7675 -0.32976563 20 -0.3125 C21.19625 -0.30863281 22.3925 -0.30476563 23.625 -0.30078125 C26.83915693 -0.01433439 29.10539759 0.62396741 32 2 C31.67 4.31 31.34 6.62 31 9 C30.30777344 8.84144531 29.61554688 8.68289062 28.90234375 8.51953125 C22.37784794 7.35162016 15.5688949 6.87329171 9.4375 9.5625 C2.97020116 16.02979884 2.40107451 21.59387972 2.390625 30.40234375 C2.37408875 31.48004532 2.35755249 32.55774689 2.34051514 33.66810608 C2.29214794 37.09129603 2.27068845 40.51404204 2.25 43.9375 C2.22183101 46.26629824 2.19190229 48.5950759 2.16015625 50.92382812 C2.08639201 56.61580513 2.03468341 62.30765787 2 68 C-0.31 68 -2.62 68 -5 68 C-5.0154612 67.04731987 -5.0154612 67.04731987 -5.03123474 66.07539368 C-5.14023275 59.40686661 -5.25474255 52.73844965 -5.37231445 46.07006836 C-5.41536731 43.58832119 -5.45706026 41.10655 -5.49731445 38.62475586 C-5.55574312 35.03752435 -5.61922006 31.45041044 -5.68359375 27.86328125 C-5.70030624 26.77106766 -5.71701874 25.67885406 -5.73423767 24.55354309 C-5.87622601 17.00665302 -6.34717368 9.51952097 -7 2 C-2.25 0 -2.25 0 0 0 Z " fill="#2563EB" transform="translate(456,45)"/>
</svg>
